<?xml version="1.0" encoding="utf-8"?>
<!-- Generator: Adobe Illustrator 16.0.0, SVG Export Plug-In . SVG Version: 6.00 Build 0)  -->
<!DOCTYPE svg PUBLIC "-//W3C//DTD SVG 1.1//EN" "http://www.w3.org/Graphics/SVG/1.1/DTD/svg11.dtd">
<svg version="1.1" id="Layer_1" xmlns="http://www.w3.org/2000/svg" xmlns:xlink="http://www.w3.org/1999/xlink" x="0px" y="0px"
	 width="500px" height="500px" viewBox="0 0 500 500" enable-background="new 0 0 500 500" xml:space="preserve">
<g>
	<defs>
		<rect id="SVGID_1_" width="500" height="500"/>
	</defs>
	<clipPath id="SVGID_2_">
		<use xlink:href="#SVGID_1_"  overflow="visible"/>
	</clipPath>
	<path clip-path="url(#SVGID_2_)" fill="#F3F5F4" d="M33.64,233.86c0-57.172,72.896-179.344,176.581-162.81
		c74.507,11.882,43.563,94.396,181.749,125.14c107.612,23.942,76.756,177.061-74.357,185.367
		C149.967,390.771,33.64,341.04,33.64,233.86"/>
	<path clip-path="url(#SVGID_2_)" fill="none" stroke="#70927F" stroke-width="0.25" stroke-miterlimit="10" d="M391.915,272.836
		c-48.052,39.387-15.676,106.987,3.258,100.741c16.904-5.578-23.985-94.259-84.387-87.257
		c-99.46,11.53-127.477,57.511-195.251,39.529c-68.245-18.106-81.499-93.883-15.245-137.129
		c66.02-43.094-38.979-116.832-47.241-93.042c-4.714,13.571,47.405,46.869,84.596,15.185c37.193-31.683,86.441-35.74,117.375,21.903
		c30.933,57.643,94.051,23.507,134.358,15.583C429.685,140.425,495.192,188.184,391.915,272.836z"/>
</g>
<g>
	<defs>
		<rect id="SVGID_3_" width="500" height="500"/>
	</defs>
	<clipPath id="SVGID_4_">
		<use xlink:href="#SVGID_3_"  overflow="visible"/>
	</clipPath>
	<path clip-path="url(#SVGID_4_)" fill="#FFFFFF" d="M416.631,172.642c0,38.874-31.514,70.387-70.388,70.387
		c-38.873,0-70.386-31.513-70.386-70.387c0-38.873,31.513-70.386,70.386-70.386C385.117,102.256,416.631,133.769,416.631,172.642"/>
	<path clip-path="url(#SVGID_4_)" fill="#F3F5F4" d="M422.331,170.958c0,38.874-31.513,70.387-70.386,70.387
		c-38.874,0-70.388-31.513-70.388-70.387c0-38.873,31.514-70.386,70.388-70.386C390.818,100.571,422.331,132.084,422.331,170.958"/>
	
		<circle clip-path="url(#SVGID_4_)" fill="none" stroke="#70927F" stroke-width="0.25" stroke-miterlimit="10" cx="346.244" cy="172.642" r="70.387"/>
</g>
<g>
	<defs>
		<path id="SVGID_5_" d="M281.558,170.957c0,38.874,31.514,70.388,70.388,70.388c38.873,0,70.386-31.514,70.386-70.388
			c0-38.872-31.513-70.386-70.386-70.386C313.071,100.571,281.558,132.085,281.558,170.957"/>
	</defs>
	<clipPath id="SVGID_6_">
		<use xlink:href="#SVGID_5_"  overflow="visible"/>
	</clipPath>
	<polygon clip-path="url(#SVGID_6_)" fill="#B14330" points="333.85,243.028 322.213,243.028 323.13,217.513 333.276,217.513 	"/>
	<polygon clip-path="url(#SVGID_6_)" fill="#FFB84F" points="327.133,174.261 315.004,216.089 319.171,220.225 315.004,225.255 
		337.091,227.726 	"/>
	<polygon clip-path="url(#SVGID_6_)" fill="#FFB84F" points="333.85,243.943 368.198,243.943 380.045,169.153 360.987,167.958 
		339.579,169.153 327.133,174.26 	"/>
	<polygon clip-path="url(#SVGID_6_)" fill="#B14330" points="345.382,180.301 360.986,167.958 355.274,149.048 338.697,151.221 	"/>
	<polygon clip-path="url(#SVGID_6_)" fill="#5F281C" points="342.107,166.057 349.742,156.532 338.696,151.221 	"/>
	<path clip-path="url(#SVGID_6_)" fill="#B14330" d="M327.472,141.163c-0.769,8.698,2.094,19.357,10.792,20.125
		c8.697,0.77,19.219-9.575,19.987-18.272c0.769-8.698,3.979-23.156-7.813-24.198C333.298,117.302,328.24,132.466,327.472,141.163"/>
	<path clip-path="url(#SVGID_6_)" fill="none" stroke="#422E2D" stroke-miterlimit="10" d="M343.23,133.44
		c0,0,0.388,3.009,3.883,4.854"/>
	<path clip-path="url(#SVGID_6_)" fill="none" stroke="#422E2D" stroke-miterlimit="10" d="M330.07,133.969
		c0,0,2.25,0.743,4.163-0.528"/>
	<path clip-path="url(#SVGID_6_)" fill="#FFFFFF" d="M332.939,149.048c0,0,4.048,0.403,10.057,0c0,0-3.057,3.753-7.585,3.372
		C334.37,152.333,332.939,149.048,332.939,149.048"/>
	<path clip-path="url(#SVGID_6_)" fill="#422E2D" d="M341.772,140.802c0,1.222,0.548,2.213,1.224,2.213s1.224-0.991,1.224-2.213
		s-0.548-2.212-1.224-2.212S341.772,139.58,341.772,140.802"/>
	<path clip-path="url(#SVGID_6_)" fill="#422E2D" d="M330.827,139.436c0,1.222,0.549,2.212,1.225,2.212s1.224-0.99,1.224-2.212
		s-0.548-2.212-1.224-2.212S330.827,138.214,330.827,139.436"/>
	<path clip-path="url(#SVGID_6_)" fill="#9A2532" d="M335.922,140.802c0,0-0.933,3.707-5.298,3.425
		C330.624,144.227,336.146,151.3,335.922,140.802"/>
	<path clip-path="url(#SVGID_6_)" fill="#422E2D" d="M360.987,146.558c10.803-12.922,14.917-15.711,0-26.059
		c0,0-1.458-9.827-14.289-6.664c-19.777,4.877-16.145,6.664-16.786,17.443c0,0,10.663,1.367,19.271-3.663c0,0,0.3,6.057,3.841,9.149
		l-0.614,6.481L360.987,146.558z"/>
	<path clip-path="url(#SVGID_6_)" fill="none" stroke="#422E2D" stroke-miterlimit="10" d="M360.987,120.499
		c0,0,1.299-2.711,0-5.535"/>
	<path clip-path="url(#SVGID_6_)" fill="none" stroke="#422E2D" stroke-miterlimit="10" d="M360.114,121.988
		c0,0,4.698-2.093,5.089-4.256"/>
	<path clip-path="url(#SVGID_6_)" fill="#B14330" d="M353.517,143.659c-1.273,3.366-0.185,6.897,2.43,7.886
		c2.614,0.989,5.767-0.939,7.039-4.305c1.273-3.366,0.186-6.897-2.429-7.886C357.941,138.366,354.79,140.293,353.517,143.659"/>
	<polygon clip-path="url(#SVGID_6_)" fill="#FFB84F" points="364.082,169.154 360.114,159.136 337.968,164.293 344.22,183.156 	"/>
	<polygon clip-path="url(#SVGID_6_)" fill="#FFD788" points="338.697,166.492 351.1,165.829 339.579,169.154 	"/>
	<polygon clip-path="url(#SVGID_6_)" fill="#FFB84F" points="380.045,169.154 382.864,224.502 365.438,233.641 364.082,169.154 	"/>
	<path clip-path="url(#SVGID_6_)" fill="#A5BBAA" d="M358.131,160.074l-5.804-1.809c-0.688-0.215-1.073-0.947-0.857-1.635
		l4.626-14.844c0.215-0.688,0.946-1.072,1.635-0.858l5.804,1.81c0.688,0.214,1.073,0.946,0.858,1.635l-4.627,14.843
		C359.551,159.904,358.818,160.288,358.131,160.074"/>
	<path clip-path="url(#SVGID_6_)" fill="#E8DFCF" d="M359.711,160.566l-6.096-1.9c-0.688-0.215-1.072-0.947-0.857-1.635
		l4.627-14.843c0.215-0.689,0.946-1.073,1.635-0.858l6.096,1.9c0.688,0.214,1.072,0.946,0.858,1.635l-4.627,14.843
		C361.132,160.397,360.399,160.78,359.711,160.566"/>
	<path clip-path="url(#SVGID_6_)" fill="#A5BBAA" d="M360.231,144.115c-0.15,0.484-0.666,0.755-1.15,0.604s-0.755-0.666-0.604-1.151
		c0.15-0.485,0.666-0.755,1.15-0.604C360.113,143.115,360.383,143.63,360.231,144.115"/>
	<path clip-path="url(#SVGID_6_)" fill="#B14330" d="M379.355,222.137l-16.758-62.433l-2.545,1.155c0,0-2.376,48.243,8.494,66.654
		L379.355,222.137z"/>
	<path clip-path="url(#SVGID_6_)" fill="#B14330" d="M362.598,159.704l4.979-10.923c0,0-13.105,3.104-7.523,12.078L362.598,159.704z
		"/>
	<path clip-path="url(#SVGID_6_)" fill="#B14330" d="M367.576,148.781l-5.836-5.101c0,0-2.053,3.41,4.789,5.756L367.576,148.781z"/>
	<path clip-path="url(#SVGID_6_)" fill="#B14330" d="M360.042,153.019l3.312-2.167l-3.459-4.294c0,0-1.227,2.223,1.927,4.479
		L360.042,153.019z"/>
	<path clip-path="url(#SVGID_6_)" fill="#B14330" d="M366.529,149.436l-6.148-4.875c0,0-1.775,3.104,5.199,5.259L366.529,149.436z"
		/>
	<polygon clip-path="url(#SVGID_6_)" fill="#FFD788" points="333.85,243.943 327.133,174.26 337.968,243.943 	"/>
</g>
<g>
	<defs>
		<rect id="SVGID_7_" width="500" height="500"/>
	</defs>
	<clipPath id="SVGID_8_">
		<use xlink:href="#SVGID_7_"  overflow="visible"/>
	</clipPath>
	<rect x="152.129" y="359.459" clip-path="url(#SVGID_8_)" fill="#86593E" width="55.987" height="8.219"/>
	<polygon clip-path="url(#SVGID_8_)" fill="#B58E67" points="229.511,408.021 222.539,408.021 189.701,316.541 196.673,316.541 	"/>
	<polygon clip-path="url(#SVGID_8_)" fill="#B58E67" points="173.282,408.021 180.254,408.021 188.464,316.541 181.491,316.541 	"/>
	<polygon clip-path="url(#SVGID_8_)" fill="#B58E67" points="132.234,408.021 139.207,408.021 172.044,316.541 165.072,316.541 	"/>
	<path clip-path="url(#SVGID_8_)" fill="#FFB84F" d="M198.943,251.828h-57.881c-1.233,0-2.234,1-2.234,2.234v59.746
		c0,1.963,1.592,3.554,3.554,3.554h61.981v-60.114C204.363,254.255,201.937,251.828,198.943,251.828"/>
	<path clip-path="url(#SVGID_8_)" fill="#FFB84F" d="M222.293,326.09h-54.94v-8.729h54.94c2.41,0,4.364,1.955,4.364,4.365
		S224.703,326.09,222.293,326.09"/>
	<path clip-path="url(#SVGID_8_)" fill="#FFD788" d="M143.539,307.987v-52.465c0-2.04-1.654-3.694-3.694-3.694
		s-3.695,1.654-3.695,3.694v53.154c0,9.617,7.796,17.413,17.413,17.413h12.794c2.41,0,4.364-1.954,4.364-4.363
		c0-2.41-1.954-4.364-4.364-4.364h-13.443C147.736,317.362,143.539,313.165,143.539,307.987"/>
	<path clip-path="url(#SVGID_8_)" fill="#B7C9B9" d="M202.795,316.542h-29.441c-13.775,0-23.565-13.407-19.371-26.528l4.862-15.208
		l43.179-5.218L202.795,316.542z"/>
	<polygon clip-path="url(#SVGID_8_)" fill="#EFEBDF" points="207.19,212.859 219.604,257.073 207.19,257.073 194.136,234.966 	"/>
	<path clip-path="url(#SVGID_8_)" fill="#5F281C" d="M219.033,255.043l31.83,6.156L250,263.852c0,0-28.246,6.733-42.81-6.778
		L219.033,255.043z"/>
	<path clip-path="url(#SVGID_8_)" fill="#5F281C" d="M250.863,261.199l13.691-1.245l-3.794,3.416
		c-3.011,2.711-7.52,2.913-10.761,0.481L250.863,261.199z"/>
	<path clip-path="url(#SVGID_8_)" fill="#5F281C" d="M264.556,259.954l2.486,5.594c0,0-3.61,0.819-3.548-4.639L264.556,259.954z"/>
	<path clip-path="url(#SVGID_8_)" fill="#5F281C" d="M261.526,260.682l2.255,5.905C263.781,266.587,259.614,267.053,261.526,260.682
		"/>
	<path clip-path="url(#SVGID_8_)" fill="#5F281C" d="M264.556,259.954l4.653,3.684c0,0-3.139,1.657-4.977-2.956L264.556,259.954z"/>
	<rect x="200.116" y="263.928" clip-path="url(#SVGID_8_)" fill="#FFFFFF" width="57.821" height="4.108"/>
	<path clip-path="url(#SVGID_8_)" fill="#FFFFFF" d="M207.19,212.859l-13.733-5.541h-16.213l-20.726,6.162l9.319,39.38
		l-8.501,21.254h40.144l-3.079-22.238l0.129-0.392c0.735-2.243,2.391-4.024,4.499-5.085c3.59-1.808,5.67-4.243,5.964-6.832
		c0.131-1.15,0.026-2.475-0.234-3.874c-1.171-6.313-0.853-12.814,1.147-18.917L207.19,212.859z"/>
	<path clip-path="url(#SVGID_8_)" fill="#EFEBDF" d="M199.754,247.6c2.244-1.13,4.227-3.577,4.851-6.506
		c0,0-4.922,4.422-21.992,2.831c-19.691-1.834-7.408,12.718-14.44,30.189h29.307l-3.079-22.238l0.129-0.393
		C195.266,249.242,197.646,248.661,199.754,247.6"/>
	<polygon clip-path="url(#SVGID_8_)" fill="#B14330" points="190.963,218.169 177.245,207.319 184.513,192.607 196.839,192.607 	"/>
	<polygon clip-path="url(#SVGID_8_)" fill="#5F281C" points="193.841,205.648 187.129,197.275 196.839,192.606 	"/>
	<path clip-path="url(#SVGID_8_)" fill="#422E2D" d="M183.822,162.404c0,0,3.22-2.651,7.248-2.651
		c3.516,0,12.55,3.712,15.908,12.196c3.359,8.485,4.627,15.661,1.275,25.278l-14.828-4.62L183.822,162.404z"/>
	<path clip-path="url(#SVGID_8_)" fill="#B14330" d="M206.707,183.765c0.676,7.646-1.841,17.016-9.486,17.691
		c-7.645,0.676-19.056-8.418-19.732-16.063c-0.676-7.645-1.337-20.355,9.03-21.271C201.584,162.79,206.03,176.119,206.707,183.765"
		/>
	<path clip-path="url(#SVGID_8_)" fill="none" stroke="#422E2D" stroke-miterlimit="10" d="M200.674,177.605
		c0,0,2.128-1.107,3.848,0.384"/>
	<path clip-path="url(#SVGID_8_)" fill="#422E2D" d="M176.52,184.192c0,0,17.994-0.205,21.963-15.909c0,0,2.738,0.47,6.511,4.707
		c0,0-1.808-9.28-16.804-9.28C172.896,163.71,176.52,184.192,176.52,184.192"/>
	<path clip-path="url(#SVGID_8_)" fill="none" stroke="#422E2D" stroke-miterlimit="10" d="M198.204,167.105
		c0,0,2.963,12.229-16.234,16.306"/>
	<path clip-path="url(#SVGID_8_)" fill="#422E2D" d="M183.822,181.346c0,0-2.956,9.35,1.496,18.233c0,0-14.618,1.913-24.256-8.883
		c-0.237-9.744,4.631-19.198,10.75-25.485c5.12-5.261,19.663-6.976,23.352,3.072C195.164,168.283,185.136,167.991,183.822,181.346"
		/>
	<path clip-path="url(#SVGID_8_)" fill="none" stroke="#422E2D" stroke-miterlimit="10" d="M209.678,197.884
		c0,0,6.815-19.082-8.073-31.873"/>
	<path clip-path="url(#SVGID_8_)" fill="none" stroke="#422E2D" stroke-miterlimit="10" d="M159.561,189.287
		c0,0,1.492-29.534,26.841-27.365"/>
	<path clip-path="url(#SVGID_8_)" fill="#FFFFFF" d="M201.9,190.696c0,0-3.558,0.355-8.84,0c0,0,2.686,3.299,6.667,2.964
		C200.643,193.584,201.9,190.696,201.9,190.696"/>
	<path clip-path="url(#SVGID_8_)" fill="#422E2D" d="M194.136,183.448c0,1.074-0.482,1.945-1.076,1.945
		c-0.594,0-1.076-0.871-1.076-1.945c0-1.074,0.482-1.945,1.076-1.945C193.654,181.503,194.136,182.374,194.136,183.448"/>
	<path clip-path="url(#SVGID_8_)" fill="#422E2D" d="M203.756,182.247c0,1.074-0.482,1.945-1.076,1.945
		c-0.594,0-1.076-0.871-1.076-1.945c0-1.074,0.482-1.945,1.076-1.945C203.274,180.302,203.756,181.173,203.756,182.247"/>
	<path clip-path="url(#SVGID_8_)" fill="#9A2532" d="M199.279,183.448c0,0,0.82,3.259,4.657,3.011
		C203.936,186.459,199.081,192.676,199.279,183.448"/>
	<path clip-path="url(#SVGID_8_)" fill="#B14330" d="M183.871,185.959c1.119,2.959,0.163,6.062-2.136,6.932
		c-2.299,0.869-5.069-0.825-6.188-3.785c-1.119-2.959-0.163-6.062,2.136-6.931C179.981,181.306,182.752,183,183.871,185.959"/>
	<rect x="177.076" y="171.8" clip-path="url(#SVGID_8_)" fill="#709480" width="2.169" height="11.611"/>
	<rect x="175.632" y="171.8" clip-path="url(#SVGID_8_)" fill="#B4C6B6" width="2.168" height="11.611"/>
	<path clip-path="url(#SVGID_8_)" fill="#709480" d="M180.482,174.417v-5.623c0-2.402,1.419-4.793,3.476-6.033
		c1.075-0.649,4.121-2.546,4.121-2.546s-5.285,0.005-7.633,0.907l-0.618,0.237c-2.482,0.953-4.12,3.336-4.12,5.995v7.063H180.482z"
		/>
	<path clip-path="url(#SVGID_8_)" fill="#B4C6B6" d="M179.038,174.417v-5.623c0-2.402,1.341-4.604,3.476-5.706l5.566-2.873
		l-1.703-0.143c-2.506-0.211-5.027,0.148-7.375,1.05l-0.618,0.237c-2.482,0.953-4.12,3.336-4.12,5.995v7.063H179.038z"/>
	<path clip-path="url(#SVGID_8_)" fill="#B4C6B6" d="M183.822,186.088c0,3.391-2.749,6.14-6.14,6.14c-3.391,0-6.14-2.749-6.14-6.14
		c0-3.392,2.749-6.141,6.14-6.141C181.073,179.947,183.822,182.696,183.822,186.088"/>
	<path clip-path="url(#SVGID_8_)" fill="#F1EADF" d="M182.614,186.088c0,3.391-2.75,6.14-6.141,6.14c-3.391,0-6.14-2.749-6.14-6.14
		c0-3.392,2.749-6.141,6.14-6.141C179.864,179.947,182.614,182.696,182.614,186.088"/>
	<path clip-path="url(#SVGID_8_)" fill="#B4C6B6" d="M180.326,186.088c0,2.127-1.725,3.852-3.853,3.852
		c-2.127,0-3.852-1.725-3.852-3.852c0-2.128,1.725-3.853,3.852-3.853C178.601,182.235,180.326,183.96,180.326,186.088"/>
	<path clip-path="url(#SVGID_8_)" fill="#F1EADF" d="M178.223,186.088c0,0.966-0.783,1.749-1.75,1.749
		c-0.965,0-1.749-0.783-1.749-1.749s0.784-1.75,1.749-1.75C177.439,184.338,178.223,185.123,178.223,186.088"/>
	<polygon clip-path="url(#SVGID_8_)" fill="#F1EADF" points="198.311,198.38 183.697,196.698 176.071,186.385 176.875,185.792 
		184.243,195.755 198.425,197.387 	"/>
	<path clip-path="url(#SVGID_8_)" fill="#B4C6B6" d="M198.632,198.885h-3.586c-0.356,0-0.644-0.288-0.644-0.644v-1.407
		c0-0.356,0.288-0.644,0.644-0.644h3.586c0.355,0,0.644,0.288,0.644,0.644v1.407C199.276,198.597,198.987,198.885,198.632,198.885"
		/>
	<polygon clip-path="url(#SVGID_8_)" fill="#EFEBDF" points="166.88,237.198 164.082,245.444 162.422,239.743 	"/>
	<polygon clip-path="url(#SVGID_8_)" fill="#FFFFFF" points="156.519,213.48 138.833,257.604 153.443,257.604 166.879,237.197 	"/>
	<path clip-path="url(#SVGID_8_)" fill="#B7C9B9" d="M234.427,268.036h-12.673c0-3.5,2.837-6.337,6.337-6.337
		C231.59,261.699,234.427,264.536,234.427,268.036"/>
	<path clip-path="url(#SVGID_8_)" fill="#B1432D" d="M155.532,254.433l61.507,6.767l-0.863,2.652c0,0-48.002,16.395-77.343-6.248
		L155.532,254.433z"/>
	<path clip-path="url(#SVGID_8_)" fill="#B1432D" d="M217.039,261.199l13.692-1.245l-3.794,3.416
		c-3.011,2.711-7.52,2.913-10.761,0.481L217.039,261.199z"/>
	<path clip-path="url(#SVGID_8_)" fill="#B1432D" d="M230.73,259.954l2.487,5.594c0,0-3.611,0.819-3.548-4.639L230.73,259.954z"/>
	<path clip-path="url(#SVGID_8_)" fill="#B1432D" d="M227.702,260.682l2.255,5.905C229.957,266.587,225.789,267.053,227.702,260.682
		"/>
	<path clip-path="url(#SVGID_8_)" fill="#B1432D" d="M230.73,259.954l4.654,3.684c0,0-3.138,1.657-4.977-2.956L230.73,259.954z"/>
	<path clip-path="url(#SVGID_8_)" fill="#70927F" d="M287.709,250.105h-56.34c-3.528,0-6.331-2.965-6.134-6.487l2.202-36.59
		c0.182-3.254,2.874-5.799,6.133-5.799h56.34c3.527,0,6.331,2.965,6.133,6.487l-2.201,36.59
		C293.66,247.56,290.968,250.105,287.709,250.105"/>
	<path clip-path="url(#SVGID_8_)" fill="#A5BBAA" d="M291.235,250.105h-56.339c-3.528,0-6.331-2.965-6.133-6.487l2.201-36.59
		c0.182-3.254,2.874-5.799,6.133-5.799h56.34c3.528,0,6.331,2.965,6.133,6.487l-2.2,36.59
		C297.187,247.56,294.495,250.105,291.235,250.105"/>
	<path clip-path="url(#SVGID_8_)" fill="#70927F" d="M271.677,236.273h-17.582l7.382,26.985c0.242,0.886-0.424,1.76-1.343,1.76
		h-17.155v3.082h19.786h11.74c2.941,0,5.08-2.798,4.306-5.637L271.677,236.273z M270.327,258.407c-2.196,0-3.977-1.78-3.977-3.976
		c0-2.196,1.78-3.977,3.977-3.977c2.195,0,3.976,1.78,3.976,3.977C274.303,256.627,272.522,258.407,270.327,258.407"/>
	<path clip-path="url(#SVGID_8_)" fill="#70927F" d="M268.511,225.688h-10.067c-2.402,0-4.349,1.947-4.349,4.348v6.237h18.764
		v-6.237C272.858,227.635,270.911,225.688,268.511,225.688"/>
	<path clip-path="url(#SVGID_8_)" fill="#E3E3E3" d="M271.4,225.688h-10.067c-2.401,0-4.348,1.947-4.348,4.348v6.237h18.763v-6.237
		C275.748,227.635,273.801,225.688,271.4,225.688"/>
	<path clip-path="url(#SVGID_8_)" fill="#E3E3E3" d="M282.873,262.219l-7.068-25.945h-18.819l1.058,3.885h-0.008l6.637,24.368
		c0.476,1.742-0.772,3.443-2.539,3.574h0.632h2.891h8.782h3.94C281.449,268.101,283.68,265.182,282.873,262.219 M271.772,258.407
		c-2.196,0-3.978-1.78-3.978-3.976c0-2.196,1.781-3.977,3.978-3.977c2.195,0,3.976,1.78,3.976,3.977
		C275.748,256.627,273.968,258.407,271.772,258.407"/>
	<path clip-path="url(#SVGID_8_)" fill="#A5BBAA" d="M271.4,225.688h-10.067c-2.401,0-4.348,1.947-4.348,4.348v6.237h18.763v-6.237
		C275.748,227.635,273.801,225.688,271.4,225.688"/>
	<path clip-path="url(#SVGID_8_)" fill="#A5BBAA" d="M282.873,262.219l-7.068-25.945h-18.819l1.058,3.885h-0.008l6.637,24.368
		c0.476,1.742-0.772,3.443-2.539,3.574h0.632h2.891h8.782h3.94C281.449,268.101,283.68,265.182,282.873,262.219 M271.772,258.407
		c-2.196,0-3.978-1.78-3.978-3.976c0-2.196,1.781-3.977,3.978-3.977c2.195,0,3.976,1.78,3.976,3.977
		C275.748,256.627,273.968,258.407,271.772,258.407"/>
	
		<path clip-path="url(#SVGID_8_)" fill="none" stroke="#F3F5F4" stroke-linecap="round" stroke-linejoin="round" stroke-miterlimit="10" d="
		M282.873,262.219l-7.068-25.946h-0.057v-6.238c0-2.4-1.947-4.347-4.348-4.347h-10.068"/>
	
		<path clip-path="url(#SVGID_8_)" fill="none" stroke="#F3F5F4" stroke-linecap="round" stroke-linejoin="round" stroke-miterlimit="10" d="
		M275.806,236.273l7.067,25.946c0.808,2.963-1.424,5.882-4.495,5.882"/>
	<path clip-path="url(#SVGID_8_)" fill="#D1CEC7" d="M236.26,233.86c-0.008,0-0.017,0-0.025-0.001
		c-0.244-0.013-0.431-0.222-0.417-0.466l1.213-21.63c0.013-0.243,0.22-0.437,0.467-0.417c0.244,0.014,0.43,0.223,0.416,0.467
		l-1.213,21.629C236.688,233.678,236.493,233.86,236.26,233.86"/>
	<path clip-path="url(#SVGID_8_)" fill="#D1CEC7" d="M239.143,233.86c-0.008,0-0.017,0-0.025-0.001
		c-0.244-0.013-0.431-0.222-0.417-0.466l1.213-21.63c0.014-0.243,0.218-0.437,0.466-0.417c0.244,0.014,0.431,0.223,0.417,0.467
		l-1.213,21.629C239.571,233.678,239.375,233.86,239.143,233.86"/>
	<path clip-path="url(#SVGID_8_)" fill="#D1CEC7" d="M242.026,233.86c-0.008,0-0.017,0-0.025-0.001
		c-0.245-0.013-0.431-0.222-0.417-0.466l1.213-21.63c0.014-0.243,0.214-0.437,0.466-0.417c0.244,0.014,0.431,0.223,0.417,0.467
		l-1.213,21.629C242.454,233.678,242.259,233.86,242.026,233.86"/>
	<path clip-path="url(#SVGID_8_)" fill="#D1CEC7" d="M244.908,233.86c-0.008,0-0.017,0-0.025-0.001
		c-0.244-0.013-0.431-0.222-0.417-0.466l1.213-21.63c0.014-0.243,0.225-0.437,0.467-0.417c0.244,0.014,0.43,0.223,0.416,0.467
		l-1.213,21.629C245.336,233.678,245.141,233.86,244.908,233.86"/>
	<path clip-path="url(#SVGID_8_)" fill="#D1CEC7" d="M247.792,233.86c-0.008,0-0.017,0-0.025-0.001
		c-0.244-0.013-0.431-0.222-0.417-0.466l1.213-21.63c0.013-0.243,0.222-0.437,0.466-0.417c0.244,0.014,0.43,0.223,0.417,0.467
		l-1.213,21.629C248.22,233.678,248.024,233.86,247.792,233.86"/>
	<path clip-path="url(#SVGID_8_)" fill="#D1CEC7" d="M281.238,233.86c-0.008,0-0.017,0-0.025-0.001
		c-0.243-0.013-0.431-0.222-0.417-0.466l1.214-21.63c0.014-0.243,0.223-0.437,0.467-0.417c0.244,0.014,0.43,0.223,0.417,0.467
		l-1.214,21.629C281.666,233.678,281.472,233.86,281.238,233.86"/>
	<path clip-path="url(#SVGID_8_)" fill="#D1CEC7" d="M284.121,233.86c-0.008,0-0.017,0-0.025-0.001
		c-0.243-0.013-0.431-0.222-0.417-0.466l1.214-21.63c0.013-0.243,0.221-0.437,0.466-0.417c0.244,0.014,0.431,0.223,0.417,0.467
		l-1.213,21.629C284.549,233.678,284.354,233.86,284.121,233.86"/>
	<path clip-path="url(#SVGID_8_)" fill="#D1CEC7" d="M287.004,233.86c-0.008,0-0.017,0-0.024-0.001
		c-0.244-0.013-0.431-0.222-0.417-0.466l1.213-21.63c0.013-0.243,0.217-0.437,0.466-0.417c0.244,0.014,0.431,0.223,0.417,0.467
		l-1.213,21.629C287.433,233.678,287.237,233.86,287.004,233.86"/>
	<path clip-path="url(#SVGID_8_)" fill="#D1CEC7" d="M289.887,233.86c-0.008,0-0.017,0-0.025-0.001
		c-0.244-0.013-0.431-0.222-0.417-0.466l1.213-21.63c0.015-0.243,0.217-0.437,0.468-0.417c0.244,0.014,0.43,0.223,0.417,0.467
		l-1.214,21.629C290.314,233.678,290.12,233.86,289.887,233.86"/>
	<path clip-path="url(#SVGID_8_)" fill="#D1CEC7" d="M292.77,233.86c-0.008,0-0.017,0-0.024-0.001
		c-0.244-0.013-0.431-0.222-0.417-0.466l1.213-21.63c0.013-0.243,0.226-0.437,0.466-0.417c0.244,0.014,0.431,0.223,0.417,0.467
		l-1.213,21.629C293.198,233.678,293.003,233.86,292.77,233.86"/>
	<path clip-path="url(#SVGID_8_)" fill="#B7C9B9" d="M230.674,285.171h-19.686l-9.714,105.168h3.041
		c22.843-61.108,29.402-88.603,31.285-99.307C236.138,287.972,233.782,285.171,230.674,285.171"/>
	<path clip-path="url(#SVGID_8_)" fill="#A5BBAA" d="M201.645,386.334c0,0,21.809-56.205,16.193-94.187
		c-0.358-2.417-6.849-6.977-6.849-6.977L201.645,386.334z"/>
	<path clip-path="url(#SVGID_8_)" fill="#B7C9B9" d="M211.612,285.171h-16.715l-39.255,101.163l2.458,4.005
		c28.29-43.482,54.117-82.071,59.467-96.617C219.093,289.571,216.034,285.171,211.612,285.171"/>
	<path clip-path="url(#SVGID_8_)" fill="#A5BBAA" d="M188.463,302.722c-9.556,2.342-19.619-0.979-21.583-6.969
		c-2.229-6.794,3.453-10.582,3.453-10.582l-4.191-11.247l-7.297,0.882l-4.862,15.208c-4.194,13.121,5.595,26.528,19.37,26.528h9.37
		l-27.082,69.792C196.262,321.694,188.463,302.722,188.463,302.722"/>
	<polygon clip-path="url(#SVGID_8_)" fill="#70927F" points="158.376,276.271 202.091,276.271 202.284,285.171 155.531,285.171 	"/>
	<polygon clip-path="url(#SVGID_8_)" fill="#B1432D" points="204.315,390.339 204.315,402.874 212.165,403.726 201.916,403.726 
		201.274,396.06 197.656,391.314 201.645,386.334 	"/>
	<path clip-path="url(#SVGID_8_)" fill="#E8DFCF" d="M212.164,403.726l-1.223,4.295h-8.099c-1.394,0-2.525-1.13-2.525-2.523v-8.451
		l-4.141-5.383l5.468-5.329l0.271,17.392H212.164z"/>
	<polygon clip-path="url(#SVGID_8_)" fill="#E8DFCF" points="196.176,391.662 196.176,408.021 199.024,393.476 	"/>
	<polygon clip-path="url(#SVGID_8_)" fill="#B1432D" points="158.313,390.339 158.313,402.874 166.162,403.726 155.913,403.726 
		155.271,396.06 151.653,391.314 155.642,386.334 	"/>
	<path clip-path="url(#SVGID_8_)" fill="#E8DFCF" d="M166.161,403.726l-1.223,4.295h-8.099c-1.394,0-2.525-1.13-2.525-2.523v-8.451
		l-4.141-5.383l5.468-5.329l0.271,17.392H166.161z"/>
	<polygon clip-path="url(#SVGID_8_)" fill="#E8DFCF" points="150.173,391.662 150.173,408.021 153.021,393.476 	"/>
	<path clip-path="url(#SVGID_8_)" fill="#E8DFCF" d="M148.271,408.021h-25.598c-4.054,0-7.34-3.286-7.34-7.34v-124.41h40.277v124.41
		C155.61,404.734,152.325,408.021,148.271,408.021"/>
	<path clip-path="url(#SVGID_8_)" fill="#A5BBAA" d="M142.525,408.021h-25.598c-4.054,0-7.34-3.286-7.34-7.34v-124.41h40.277v124.41
		C149.864,404.734,146.578,408.021,142.525,408.021"/>
	<path clip-path="url(#SVGID_8_)" fill="#E8DFCF" d="M304.295,408.021h-25.598c-4.055,0-7.341-3.286-7.341-7.34v-124.41h40.278
		v124.41C311.635,404.734,308.349,408.021,304.295,408.021"/>
	<path clip-path="url(#SVGID_8_)" fill="#A5BBAA" d="M298.548,408.021H272.95c-4.054,0-7.34-3.286-7.34-7.34v-124.41h40.278v124.41
		C305.889,404.734,302.603,408.021,298.548,408.021"/>
	<path clip-path="url(#SVGID_8_)" fill="#A5BBAA" d="M97.592,280.721H301.91c2.569,0,4.653-2.083,4.653-4.653v-3.378
		c0-2.57-2.084-4.653-4.653-4.653H97.592c-2.57,0-4.653,2.083-4.653,4.653v3.378C92.939,278.638,95.022,280.721,97.592,280.721"/>
	<path clip-path="url(#SVGID_8_)" fill="#E8DFCF" d="M190.138,280.721h142.571c2.569,0,4.652-2.083,4.652-4.653v-3.378
		c0-2.57-2.083-4.653-4.652-4.653H190.138c-2.57,0-4.653,2.083-4.653,4.653v3.378C185.485,278.638,187.568,280.721,190.138,280.721"
		/>
	<rect x="109.587" y="280.721" clip-path="url(#SVGID_8_)" fill="#70927F" width="40.277" height="7.417"/>
	<rect x="265.61" y="280.721" clip-path="url(#SVGID_8_)" fill="#70927F" width="40.277" height="7.417"/>
	<path clip-path="url(#SVGID_8_)" fill="#FFFFFF" d="M319.307,145.98l-10.283-8.234h-65.1c-4.336,0-7.851-3.516-7.851-7.851v-10.77
		c0-4.336,3.515-7.852,7.851-7.852h67.532c4.336,0,7.851,3.516,7.851,7.852V145.98z"/>
	<path clip-path="url(#SVGID_8_)" fill="none" stroke="#70927F" stroke-width="0.25" stroke-miterlimit="10" d="M319.307,145.98
		l-10.283-8.234h-65.1c-4.336,0-7.851-3.516-7.851-7.851v-10.77c0-4.336,3.515-7.852,7.851-7.852h67.532
		c4.336,0,7.851,3.516,7.851,7.852V145.98z"/>
	
		<line clip-path="url(#SVGID_8_)" fill="none" stroke="#70927F" stroke-width="0.25" stroke-miterlimit="10" x1="245.361" y1="117.822" x2="290.953" y2="117.822"/>
	
		<line clip-path="url(#SVGID_8_)" fill="none" stroke="#70927F" stroke-width="0.25" stroke-miterlimit="10" x1="245.361" y1="123.878" x2="290.953" y2="123.878"/>
	
		<line clip-path="url(#SVGID_8_)" fill="none" stroke="#70927F" stroke-width="0.25" stroke-miterlimit="10" x1="245.361" y1="129.935" x2="290.953" y2="129.935"/>
	<path clip-path="url(#SVGID_8_)" fill="#FFFFFF" d="M218.226,182.799l10.283-8.234h65.1c4.336,0,7.852-3.515,7.852-7.851v-10.77
		c0-4.336-3.516-7.852-7.852-7.852h-67.531c-4.337,0-7.852,3.516-7.852,7.852V182.799z"/>
	<path clip-path="url(#SVGID_8_)" fill="none" stroke="#70927F" stroke-width="0.25" stroke-miterlimit="10" d="M218.226,182.799
		l10.283-8.234h65.1c4.336,0,7.852-3.515,7.852-7.851v-10.77c0-4.336-3.516-7.852-7.852-7.852h-67.531
		c-4.337,0-7.852,3.516-7.852,7.852V182.799z"/>
	
		<line clip-path="url(#SVGID_8_)" fill="none" stroke="#70927F" stroke-width="0.25" stroke-miterlimit="10" x1="292.171" y1="154.641" x2="246.58" y2="154.641"/>
	
		<line clip-path="url(#SVGID_8_)" fill="none" stroke="#70927F" stroke-width="0.25" stroke-miterlimit="10" x1="292.171" y1="160.697" x2="246.58" y2="160.697"/>
	
		<line clip-path="url(#SVGID_8_)" fill="none" stroke="#70927F" stroke-width="0.25" stroke-miterlimit="10" x1="292.171" y1="166.753" x2="246.58" y2="166.753"/>
	<path clip-path="url(#SVGID_8_)" fill="#A5BBAA" d="M380.326,134.533l0.265-0.058c4.171,2.498,6.885,2.377,8.25,0.252l0.041-0.064
		c1.157-1.802,0.58-3.946-1.738-5.435c-2.026-1.302-4.28-1.476-6.88-0.827l-0.759-4.126c3.23-0.925,6.575-0.823,10.051,1.41
		c4.506,2.894,5.952,7.369,3.367,11.393l-0.041,0.064c-2.605,4.055-6.712,4.009-10.678,2.325l-1.977,2.368l-2.606-1.674
		L380.326,134.533z M374.951,142.265l4.313,2.77l-2.853,4.442l-4.313-2.771L374.951,142.265z"/>
	<path clip-path="url(#SVGID_8_)" fill="#E8DFCF" d="M102.486,316.838L102.486,316.838c-5.804,0-10.509,4.705-10.509,10.509v67.868
		c0,1.517,1.23,2.747,2.747,2.747h15.524c1.517,0,2.747-1.23,2.747-2.747v-67.868C112.995,321.543,108.29,316.838,102.486,316.838"
		/>
	<path clip-path="url(#SVGID_8_)" fill="#E8DFCF" d="M111.784,358.38h-6.917c-2.86,0-5.179-2.319-5.179-5.18
		c0-2.859,2.319-5.179,5.179-5.179h6.917c3.85,0,6.982-3.133,6.982-6.982v-7.247c0-2.86,2.319-5.179,5.179-5.179
		c2.86,0,5.179,2.318,5.179,5.179v7.247C129.124,350.601,121.346,358.38,111.784,358.38"/>
	<path clip-path="url(#SVGID_8_)" fill="#E8DFCF" d="M100.809,372.026h-7.248c-9.562,0-17.34-7.779-17.34-17.341v-6.918
		c0-2.86,2.318-5.178,5.179-5.178c2.86,0,5.179,2.317,5.179,5.178v6.918c0,3.85,3.132,6.981,6.982,6.981h7.248
		c2.86,0,5.179,2.319,5.179,5.18S103.669,372.026,100.809,372.026"/>
	<rect x="96.503" y="328.63" clip-path="url(#SVGID_8_)" fill="#F3F5F4" width="0.863" height="3.604"/>
	<rect x="107.511" y="323.226" clip-path="url(#SVGID_8_)" fill="#F3F5F4" width="0.863" height="3.604"/>
	<rect x="101.378" y="344.166" clip-path="url(#SVGID_8_)" fill="#F3F5F4" width="0.863" height="3.602"/>
	<rect x="104.435" y="333.256" clip-path="url(#SVGID_8_)" fill="#F3F5F4" width="0.863" height="3.604"/>
	<rect x="109.152" y="364.089" clip-path="url(#SVGID_8_)" fill="#F3F5F4" width="0.863" height="3.604"/>
	<rect x="120.922" y="331.99" clip-path="url(#SVGID_8_)" fill="#F3F5F4" width="0.863" height="3.604"/>
	<rect x="96.503" y="355.597" clip-path="url(#SVGID_8_)" fill="#F3F5F4" width="0.863" height="3.604"/>
	<rect x="97.404" y="370.987" clip-path="url(#SVGID_8_)" fill="#F3F5F4" width="0.863" height="3.603"/>
	<rect x="105.51" y="354.774" clip-path="url(#SVGID_8_)" fill="#F3F5F4" width="0.863" height="3.603"/>
	<rect x="79.253" y="355.505" clip-path="url(#SVGID_8_)" fill="#F3F5F4" width="0.863" height="3.604"/>
	<rect x="83.392" y="348.782" clip-path="url(#SVGID_8_)" fill="#F3F5F4" width="0.863" height="3.604"/>
	<rect x="85.294" y="359.109" clip-path="url(#SVGID_8_)" fill="#F3F5F4" width="0.863" height="3.603"/>
	<rect x="109.913" y="341.04" clip-path="url(#SVGID_8_)" fill="#F3F5F4" width="0.863" height="3.603"/>
	<rect x="122.723" y="345.966" clip-path="url(#SVGID_8_)" fill="#F3F5F4" width="0.863" height="3.604"/>
	<path clip-path="url(#SVGID_8_)" fill="#F3F5F4" d="M120.292,378.028H85.053c-0.952,0-1.686,0.839-1.56,1.782l3.651,27.333
		c0.373,2.792,2.755,4.877,5.572,4.877h20.52c2.865,0,5.271-2.153,5.587-5l3.033-27.244
		C121.96,378.844,121.23,378.028,120.292,378.028"/>
	<polygon clip-path="url(#SVGID_8_)" fill="#70927F" points="120.217,394.501 120.834,388.962 84.715,388.962 85.455,394.501 	"/>
	<path clip-path="url(#SVGID_8_)" fill="#F3F5F4" d="M94.133,237.198c0,4.827-3.913,8.74-8.741,8.74c-4.827,0-8.74-3.913-8.74-8.74
		c0-4.828,3.913-8.741,8.74-8.741C90.22,228.457,94.133,232.37,94.133,237.198"/>
	
		<circle clip-path="url(#SVGID_8_)" fill="none" stroke="#70927F" stroke-width="0.25" stroke-miterlimit="10" cx="85.392" cy="237.198" r="8.74"/>
	<path clip-path="url(#SVGID_8_)" fill="#F3F5F4" d="M366.861,257.604c0,4.827-3.914,8.741-8.741,8.741s-8.74-3.914-8.74-8.741
		s3.913-8.74,8.74-8.74S366.861,252.776,366.861,257.604"/>
	
		<circle clip-path="url(#SVGID_8_)" fill="none" stroke="#70927F" stroke-width="0.25" stroke-miterlimit="10" cx="358.121" cy="257.604" r="8.741"/>
	<path clip-path="url(#SVGID_8_)" fill="#F3F5F4" d="M352.498,313.071c0,2.414-1.957,4.37-4.37,4.37c-2.414,0-4.37-1.956-4.37-4.37
		c0-2.413,1.956-4.37,4.37-4.37C350.541,308.701,352.498,310.658,352.498,313.071"/>
	
		<circle clip-path="url(#SVGID_8_)" fill="none" stroke="#70927F" stroke-width="0.25" stroke-miterlimit="10" cx="348.128" cy="313.071" r="4.37"/>
	<polygon clip-path="url(#SVGID_8_)" fill="#F3F5F4" points="408.033,176.688 404.67,190.522 394.199,180.052 	"/>
	<polygon clip-path="url(#SVGID_8_)" fill="none" stroke="#70927F" stroke-width="0.25" stroke-miterlimit="10" points="
		408.033,176.688 404.67,190.522 394.199,180.052 	"/>
	<polygon clip-path="url(#SVGID_8_)" fill="#F3F5F4" points="174.677,137.671 162.516,145.074 162.516,130.268 	"/>
	<polygon clip-path="url(#SVGID_8_)" fill="none" stroke="#70927F" stroke-width="0.25" stroke-miterlimit="10" points="
		174.677,137.671 162.516,145.074 162.516,130.268 	"/>
	<polygon clip-path="url(#SVGID_8_)" fill="#F3F5F4" points="408.895,308.701 396.734,316.104 396.734,301.298 	"/>
	<polygon clip-path="url(#SVGID_8_)" fill="none" stroke="#70927F" stroke-width="0.25" stroke-miterlimit="10" points="
		408.895,308.701 396.734,316.104 396.734,301.298 	"/>
	<path clip-path="url(#SVGID_8_)" fill="#FFFFFF" d="M422.248,281.692h-57.733c-3.531,0-6.395-2.863-6.395-6.395v-11.42
		c0-3.531,2.863-6.394,6.395-6.394h57.733c3.531,0,6.395,2.862,6.395,6.394v11.42C428.643,278.829,425.779,281.692,422.248,281.692"
		/>
	<path clip-path="url(#SVGID_8_)" fill="none" stroke="#70927F" stroke-width="0.25" stroke-miterlimit="10" d="M422.248,281.692
		h-57.733c-3.531,0-6.395-2.863-6.395-6.395v-11.42c0-3.531,2.863-6.394,6.395-6.394h57.733c3.531,0,6.395,2.862,6.395,6.394v11.42
		C428.643,278.829,425.779,281.692,422.248,281.692z"/>
	
		<line clip-path="url(#SVGID_8_)" fill="none" stroke="#70927F" stroke-width="0.25" stroke-miterlimit="10" x1="416.177" y1="263.532" x2="370.585" y2="263.532"/>
	
		<line clip-path="url(#SVGID_8_)" fill="none" stroke="#70927F" stroke-width="0.25" stroke-miterlimit="10" x1="416.177" y1="269.588" x2="370.585" y2="269.588"/>
	
		<line clip-path="url(#SVGID_8_)" fill="none" stroke="#70927F" stroke-width="0.25" stroke-miterlimit="10" x1="416.177" y1="275.645" x2="370.585" y2="275.645"/>
	<path clip-path="url(#SVGID_8_)" fill="#FFFFFF" d="M137.239,204.09H79.505c-3.531,0-6.393-2.862-6.393-6.394v-11.42
		c0-3.531,2.862-6.394,6.393-6.394h57.734c3.531,0,6.394,2.863,6.394,6.394v11.42C143.633,201.228,140.771,204.09,137.239,204.09"/>
	<path clip-path="url(#SVGID_8_)" fill="none" stroke="#70927F" stroke-width="0.25" stroke-miterlimit="10" d="M137.239,204.09
		H79.505c-3.531,0-6.393-2.862-6.393-6.394v-11.42c0-3.531,2.862-6.394,6.393-6.394h57.734c3.531,0,6.394,2.863,6.394,6.394v11.42
		C143.633,201.228,140.771,204.09,137.239,204.09z"/>
	
		<line clip-path="url(#SVGID_8_)" fill="none" stroke="#70927F" stroke-width="0.25" stroke-miterlimit="10" x1="131.168" y1="185.93" x2="85.577" y2="185.93"/>
	
		<line clip-path="url(#SVGID_8_)" fill="none" stroke="#70927F" stroke-width="0.25" stroke-miterlimit="10" x1="131.168" y1="191.986" x2="85.577" y2="191.986"/>
	
		<line clip-path="url(#SVGID_8_)" fill="none" stroke="#70927F" stroke-width="0.25" stroke-miterlimit="10" x1="131.168" y1="198.042" x2="85.577" y2="198.042"/>
</g>
<g display="none">
	<defs>
		<rect id="SVGID_9_" width="500" height="500"/>
	</defs>
	<clipPath id="SVGID_10_" display="inline">
		<use xlink:href="#SVGID_9_"  overflow="visible"/>
	</clipPath>
	<path display="inline" clip-path="url(#SVGID_10_)" fill="#231F20" d="M260.104,465.466c-0.432,0.442-0.803,0.931-1.107,1.453
		l-0.465-0.241c-0.068-0.298-0.351-0.503-0.659-0.467c-0.331,0.039-0.568,0.339-0.529,0.67s0.339,0.568,0.67,0.529
		c0.065-0.008,0.127-0.026,0.184-0.053l0.451,0.234c-0.251,0.554-0.433,1.139-0.539,1.744l0.747,0.131
		c0.229-1.306,0.85-2.506,1.791-3.472L260.104,465.466z"/>
	<path display="inline" clip-path="url(#SVGID_10_)" fill="#231F20" d="M265.592,463.163c-0.171,0-0.341,0.007-0.51,0.018
		l-0.073-0.626c0.187-0.149,0.295-0.39,0.266-0.645c-0.047-0.393-0.402-0.675-0.796-0.629c-0.393,0.047-0.674,0.403-0.628,0.796
		c0.03,0.254,0.19,0.461,0.405,0.563l0.073,0.624c-0.714,0.116-1.403,0.332-2.06,0.646l0.327,0.684
		c0.933-0.447,1.941-0.673,2.995-0.673c0.497,0,0.993,0.054,1.475,0.157l0.161-0.741
		C266.692,463.223,266.142,463.163,265.592,463.163"/>
	<path display="inline" clip-path="url(#SVGID_10_)" fill="#231F20" d="M272.194,465.711c0.331-0.041,0.566-0.342,0.525-0.673
		c-0.04-0.331-0.342-0.565-0.673-0.525c-0.309,0.038-0.534,0.303-0.529,0.608l-0.416,0.363c-0.418-0.43-0.89-0.813-1.407-1.139
		l-0.405,0.641c1.134,0.715,2.021,1.727,2.564,2.926l0.689-0.313c-0.25-0.555-0.566-1.072-0.941-1.545l0.402-0.352
		C272.065,465.716,272.129,465.719,272.194,465.711"/>
	<path display="inline" clip-path="url(#SVGID_10_)" fill="#231F20" d="M265.044,473.372c-0.386,0.023-0.774,0.034-1.156,0.034
		c-0.881,0-1.733-0.061-2.479-0.179c-0.39-0.063-0.845-0.155-1.27-0.292c1.047,1.86,3.069,3.125,5.388,3.125
		c2.856,0,5.263-1.916,5.95-4.504c-0.683,0.449-1.505,0.825-2.458,1.123C267.838,473.047,266.463,473.286,265.044,473.372"/>
	<path display="inline" clip-path="url(#SVGID_10_)" fill="#231F20" d="M265.592,464.68c-3.352,0-6.08,2.666-6.08,5.943
		c0,0.426,0.047,0.849,0.137,1.262c0.675,0.482,2.706,0.89,5.349,0.73c2.88-0.173,5.297-0.957,6.672-2.158
		c-0.005-0.195-0.021-0.391-0.045-0.582C271.244,466.913,268.649,464.68,265.592,464.68 M263.433,471.194
		c-1.02,0-1.85-0.83-1.85-1.85c0-1.021,0.83-1.85,1.85-1.85s1.85,0.829,1.85,1.85C265.282,470.364,264.452,471.194,263.433,471.194
		 M268.17,470.286c-0.75,0-1.36-0.61-1.36-1.36s0.61-1.36,1.36-1.36s1.36,0.61,1.36,1.36S268.92,470.286,268.17,470.286"/>
	<path display="inline" clip-path="url(#SVGID_10_)" fill="#231F20" d="M281.596,466.547c-0.295-0.116-0.807-0.309-1.383-0.237
		c-0.551,0.068-0.844,0.341-0.844,1.008v0.864h2.229v1.719h-2.229v5.453h-1.932V469.9h-1.34v-1.719h1.34v-0.888
		c0-1.681,0.896-2.783,2.568-2.783c0.643,0,1.156,0.122,1.59,0.309V466.547z"/>
	<path display="inline" clip-path="url(#SVGID_10_)" fill="#231F20" d="M286.298,469.879c-0.177-0.03-0.357-0.047-0.526-0.047
		c-0.896,0-1.51,0.548-1.51,1.614v3.907h-1.932v-7.172h1.873v0.785c0.451-0.674,1.139-0.978,2.02-0.978
		c0.415,0,0.849,0.128,1.096,0.337L286.298,469.879z"/>
	<path display="inline" clip-path="url(#SVGID_10_)" fill="#231F20" d="M293.966,471.757c0,0.222-0.016,0.488-0.037,0.651h-5.085
		c0.207,1.036,0.932,1.487,1.842,1.487c0.623,0,1.296-0.251,1.814-0.688l1.132,1.243c-0.814,0.747-1.851,1.088-3.057,1.088
		c-2.198,0-3.723-1.495-3.723-3.753s1.48-3.797,3.626-3.797C292.544,467.989,293.958,469.521,293.966,471.757 M288.851,471.091
		h3.175c-0.177-0.918-0.732-1.436-1.561-1.436C289.554,469.655,289.021,470.202,288.851,471.091"/>
	<path display="inline" clip-path="url(#SVGID_10_)" fill="#231F20" d="M301.619,471.757c0,0.222-0.016,0.488-0.037,0.651h-5.085
		c0.207,1.036,0.932,1.487,1.842,1.487c0.623,0,1.296-0.251,1.814-0.688l1.132,1.243c-0.814,0.747-1.851,1.088-3.057,1.088
		c-2.198,0-3.723-1.495-3.723-3.753s1.48-3.797,3.626-3.797C300.197,467.989,301.611,469.521,301.619,471.757 M296.504,471.091
		h3.175c-0.177-0.918-0.732-1.436-1.561-1.436C297.207,469.655,296.674,470.202,296.504,471.091"/>
	<path display="inline" clip-path="url(#SVGID_10_)" fill="#231F20" d="M309.964,471.765c0,2.153-1.495,3.774-3.471,3.774
		c-0.962,0-1.645-0.379-2.11-0.933v3.708h-1.924v-10.133h1.887v0.792c0.467-0.584,1.155-0.984,2.14-0.984
		C308.469,467.989,309.964,469.61,309.964,471.765 M304.287,471.765c0,1.132,0.748,1.976,1.843,1.976
		c1.141,0,1.851-0.881,1.851-1.976c0-1.096-0.71-1.977-1.851-1.977C305.035,469.788,304.287,470.632,304.287,471.765"/>
	<path display="inline" clip-path="url(#SVGID_10_)" fill="#231F20" d="M313.067,465.836c0,0.695-0.54,1.229-1.235,1.229
		c-0.696,0-1.229-0.533-1.229-1.229c0-0.696,0.533-1.243,1.229-1.243C312.527,464.593,313.067,465.14,313.067,465.836
		 M312.809,475.354h-1.932v-7.172h1.932V475.354z"/>
	<polygon display="inline" clip-path="url(#SVGID_10_)" fill="#231F20" points="316.032,470.735 318.734,468.182 321.103,468.182 
		317.623,471.557 321.124,475.354 318.748,475.354 316.032,472.452 316.032,475.354 314.101,475.354 314.101,464.696 
		316.032,464.696 	"/>
	<path display="inline" clip-path="url(#SVGID_10_)" fill="#231F20" d="M184.413,475.289v-1.055c-0.527,0.718-1.392,1.23-2.388,1.23
		c-1.845,0-3.149-1.407-3.149-3.706c0-2.256,1.289-3.721,3.149-3.721c0.952,0,1.817,0.469,2.388,1.245v-3.765h1.099v9.771H184.413z
		 M184.413,473.37v-3.208c-0.396-0.615-1.245-1.143-2.124-1.143c-1.421,0-2.271,1.172-2.271,2.739s0.85,2.725,2.271,2.725
		C183.167,474.483,184.017,473.985,184.413,473.37"/>
	<path display="inline" clip-path="url(#SVGID_10_)" fill="#231F20" d="M186.931,471.744c0-2.051,1.465-3.706,3.487-3.706
		c2.138,0,3.398,1.67,3.398,3.794v0.278h-5.727c0.087,1.333,1.025,2.446,2.548,2.446c0.806,0,1.626-0.322,2.183-0.894l0.527,0.718
		c-0.703,0.703-1.655,1.084-2.812,1.084C188.44,475.465,186.931,473.956,186.931,471.744 M190.403,468.946
		c-1.509,0-2.256,1.274-2.314,2.358h4.643C192.717,470.25,192.014,468.946,190.403,468.946"/>
	<path display="inline" clip-path="url(#SVGID_10_)" fill="#231F20" d="M194.607,474.352l0.571-0.791
		c0.469,0.542,1.363,1.011,2.329,1.011c1.084,0,1.67-0.513,1.67-1.216c0-1.714-4.38-0.659-4.38-3.281
		c0-1.099,0.953-2.035,2.637-2.035c1.201,0,2.051,0.453,2.622,1.024l-0.513,0.762c-0.424-0.513-1.201-0.894-2.109-0.894
		c-0.967,0-1.567,0.483-1.567,1.113c0,1.553,4.379,0.527,4.379,3.281c0,1.187-0.952,2.139-2.783,2.139
		C196.306,475.465,195.325,475.113,194.607,474.352"/>
	<path display="inline" clip-path="url(#SVGID_10_)" fill="#231F20" d="M201.477,466.471c0-0.41,0.337-0.747,0.732-0.747
		c0.41,0,0.747,0.337,0.747,0.747s-0.337,0.732-0.747,0.732C201.814,467.203,201.477,466.881,201.477,466.471 M201.667,468.214
		h1.099v7.075h-1.099V468.214z"/>
	<path display="inline" clip-path="url(#SVGID_10_)" fill="#231F20" d="M204.583,477.105l0.556-0.82
		c0.586,0.703,1.289,0.967,2.3,0.967c1.172,0,2.27-0.571,2.27-2.124v-1.011c-0.512,0.718-1.376,1.26-2.373,1.26
		c-1.845,0-3.149-1.377-3.149-3.662c0-2.271,1.289-3.677,3.149-3.677c0.952,0,1.802,0.469,2.373,1.245v-1.069h1.099v6.87
		c0,2.344-1.641,3.076-3.369,3.076C206.237,478.16,205.417,477.926,204.583,477.105 M209.708,473.253v-3.091
		c-0.381-0.615-1.23-1.143-2.109-1.143c-1.421,0-2.27,1.128-2.27,2.695c0,1.553,0.849,2.695,2.27,2.695
		C208.479,474.41,209.328,473.868,209.708,473.253"/>
	<path display="inline" clip-path="url(#SVGID_10_)" fill="#231F20" d="M217.413,475.289v-4.629c0-1.245-0.629-1.641-1.582-1.641
		c-0.864,0-1.685,0.527-2.094,1.099v5.171h-1.099v-7.075h1.099v1.025c0.498-0.586,1.464-1.201,2.519-1.201
		c1.479,0,2.256,0.747,2.256,2.285v4.966H217.413z"/>
	<path display="inline" clip-path="url(#SVGID_10_)" fill="#231F20" d="M219.932,471.744c0-2.051,1.465-3.706,3.487-3.706
		c2.138,0,3.398,1.67,3.398,3.794v0.278h-5.727c0.087,1.333,1.025,2.446,2.548,2.446c0.806,0,1.626-0.322,2.183-0.894l0.527,0.718
		c-0.703,0.703-1.655,1.084-2.812,1.084C221.441,475.465,219.932,473.956,219.932,471.744 M223.404,468.946
		c-1.509,0-2.256,1.274-2.314,2.358h4.643C225.718,470.25,225.015,468.946,223.404,468.946"/>
	<path display="inline" clip-path="url(#SVGID_10_)" fill="#231F20" d="M233.35,475.289v-1.055c-0.527,0.718-1.392,1.23-2.388,1.23
		c-1.845,0-3.149-1.407-3.149-3.706c0-2.256,1.289-3.721,3.149-3.721c0.952,0,1.817,0.469,2.388,1.245v-3.765h1.098v9.771H233.35z
		 M233.35,473.37v-3.208c-0.396-0.615-1.245-1.143-2.124-1.143c-1.421,0-2.271,1.172-2.271,2.739s0.85,2.725,2.271,2.725
		C232.105,474.483,232.954,473.985,233.35,473.37"/>
	<path display="inline" clip-path="url(#SVGID_10_)" fill="#231F20" d="M239.692,475.289v-9.771h1.099v3.765
		c0.571-0.776,1.421-1.245,2.387-1.245c1.846,0,3.15,1.465,3.15,3.721c0,2.3-1.304,3.706-3.15,3.706c-0.996,0-1.86-0.513-2.387-1.23
		v1.055H239.692z M242.9,474.483c1.436,0,2.285-1.157,2.285-2.725s-0.849-2.739-2.285-2.739c-0.864,0-1.729,0.527-2.109,1.143v3.208
		C241.171,473.985,242.036,474.483,242.9,474.483"/>
	<path display="inline" clip-path="url(#SVGID_10_)" fill="#231F20" d="M247.528,477.062c0.161,0.073,0.425,0.117,0.601,0.117
		c0.483,0,0.805-0.161,1.055-0.747l0.468-1.069l-2.959-7.148h1.187l2.358,5.801l2.344-5.801h1.201l-3.545,8.511
		c-0.425,1.024-1.143,1.421-2.08,1.436c-0.234,0-0.601-0.044-0.806-0.103L247.528,477.062z"/>
</g>
</svg>
